<svg width="282" height="287" viewBox="0 0 282 287" fill="none" xmlns="http://www.w3.org/2000/svg">
<mask id="mask0_0_1" style="mask-type:luminance" maskUnits="userSpaceOnUse" x="29" y="0" width="221" height="247">
<path d="M29.1533 0.709229H249.467V246.268H29.1533V0.709229Z" fill="white"/>
</mask>
<g mask="url(#mask0_0_1)">
<mask id="mask1_0_1" style="mask-type:luminance" maskUnits="userSpaceOnUse" x="29" y="0" width="221" height="247">
<path d="M29.1533 0.709229H249.467V246.268H29.1533V0.709229Z" fill="white"/>
</mask>
<g mask="url(#mask1_0_1)">
<path d="M228.267 85.5833H216.034V34.496C223.085 32.2797 228.211 25.7266 228.211 18.0055C228.211 8.46866 220.392 0.709229 210.782 0.709229C201.172 0.709229 193.354 8.46866 193.354 18.0055C193.354 25.7308 198.485 32.2874 205.542 34.5002V85.5833H169.932V62.1795C176.99 59.9666 182.121 53.4101 182.121 45.6839C182.121 36.147 174.303 28.3876 164.693 28.3876C155.083 28.3876 147.264 36.147 147.264 45.6839C147.264 53.4058 152.39 59.9581 159.441 62.1752V210.713H123.85V34.4977C130.904 32.2823 136.032 25.7283 136.032 18.0055C136.032 8.46866 128.213 0.709229 118.603 0.709229C108.994 0.709229 101.175 8.46866 101.175 18.0055C101.175 25.7291 106.304 32.284 113.358 34.4985V210.714H50.3541C44.4493 210.714 39.6457 205.946 39.6457 200.087V167.369H73.0852V95.9952H97.7175V85.5833H73.0852V34.4977C80.1392 32.2823 85.268 25.7283 85.268 18.0055C85.268 8.46866 77.4492 0.709229 67.8385 0.709229C58.2279 0.709229 50.41 8.46866 50.41 18.0055C50.41 25.7291 55.5396 32.284 62.5936 34.4985V85.5833H50.3532C38.6633 85.5833 29.1533 95.0211 29.1533 106.622V200.087C29.1533 211.688 38.6633 221.126 50.3532 221.126H134.065V235.856H93.1874V246.268H185.432V235.856H144.555V221.126H228.267C239.956 221.126 249.467 211.688 249.467 200.087V106.622C249.467 95.0211 239.957 85.5833 228.267 85.5833ZM210.783 11.1203C214.608 11.1203 217.721 14.2091 217.721 18.0055C217.721 21.802 214.608 24.8908 210.783 24.8908C206.957 24.8908 203.845 21.802 203.845 18.0055C203.845 14.2091 206.957 11.1203 210.783 11.1203ZM118.605 11.1203C122.431 11.1203 125.543 14.2091 125.543 18.0055C125.543 21.802 122.431 24.8908 118.605 24.8908C114.78 24.8908 111.667 21.802 111.667 18.0055C111.667 14.2091 114.78 11.1203 118.605 11.1203ZM67.8385 11.1203C71.6641 11.1203 74.7764 14.2091 74.7764 18.0055C74.7764 21.802 71.6641 24.8908 67.8385 24.8908C64.013 24.8908 60.9007 21.802 60.9007 18.0055C60.9007 14.2091 64.013 11.1203 67.8385 11.1203ZM50.3541 95.9944H62.5945V156.958H39.6457V106.621C39.6457 100.762 44.4493 95.9944 50.3541 95.9944ZM228.267 95.9944C234.172 95.9944 238.977 100.762 238.977 106.621V156.958H216.034V95.9944H228.267ZM164.694 38.7995C168.519 38.7995 171.631 41.8883 171.631 45.6848C171.631 49.4813 168.519 52.57 164.694 52.57C160.868 52.57 157.756 49.4813 157.756 45.6848C157.756 41.8883 160.868 38.7995 164.694 38.7995ZM228.267 210.713H169.933V95.9944H205.543V167.369H238.977V200.086C238.977 205.946 234.172 210.713 228.267 210.713Z" fill="url(#paint0_linear_0_1)"/>
</g>
</g>
<path d="M18.3643 281.232L28.9399 258.038C29.5631 256.724 30.0306 255.893 30.3422 255.545C31.0044 254.965 31.6763 254.675 32.358 254.675C33.0396 254.675 33.5655 254.753 33.9355 254.907C34.3056 255.062 34.6269 255.274 34.8996 255.545C35.5618 256.202 35.8929 257.072 35.8929 258.154V284.596C35.8929 285.175 35.7079 285.61 35.3378 285.9C34.9678 286.19 34.549 286.335 34.0816 286.335C33.6142 286.335 33.2052 286.19 32.8546 285.9C32.504 285.61 32.3287 285.175 32.3287 284.596V258.618L20.7599 283.9C20.2925 285.06 19.4745 285.639 18.3059 285.639C17.2931 285.639 16.4946 285.06 15.9103 283.9L4.39991 258.734V284.596C4.39991 285.175 4.21489 285.61 3.84484 285.9C3.47479 286.19 3.05606 286.335 2.58863 286.335C2.1212 286.335 1.70246 286.19 1.33241 285.9C0.962367 285.61 0.777344 285.175 0.777344 284.596V258.154C0.777344 256.454 1.40058 255.371 2.64706 254.907C3.07553 254.83 3.51375 254.772 3.9617 254.733C4.40965 254.695 4.81865 254.733 5.1887 254.849C5.55874 254.965 5.8801 255.139 6.15277 255.371C6.6202 255.758 7.20448 256.647 7.90562 258.038L18.3059 281.232H18.3643ZM48.3977 272.535V284.422C48.3977 285.349 47.9692 285.949 47.1123 286.219C46.8786 286.297 46.5864 286.335 46.2358 286.335C45.8853 286.335 45.5055 286.181 45.0965 285.871C44.6875 285.562 44.483 285.079 44.483 284.422V256.647C44.483 255.874 44.892 255.274 45.71 254.849C45.9437 254.733 46.2164 254.675 46.528 254.675H54.4743C61.0962 254.675 65.1277 256.685 66.569 260.706C66.9195 261.634 67.0948 262.619 67.0948 263.663C67.0948 264.707 66.939 265.673 66.6274 266.562C66.3158 267.451 65.8678 268.244 65.2835 268.94C64.6993 269.635 63.9981 270.196 63.1801 270.621C62.3621 271.046 61.4857 271.414 60.5508 271.723C58.7201 272.264 56.6361 272.535 54.299 272.535H48.3977ZM55.0001 269.404C57.532 269.404 59.4017 268.978 60.6093 268.128C62.2063 267.123 63.0048 265.596 63.0048 263.547C63.0048 261.576 62.2063 260.087 60.6093 259.082C59.4017 258.309 57.5515 257.884 55.0586 257.806H48.3977V269.404H55.0001ZM73.229 256.589C73.229 255.777 73.6185 255.197 74.3975 254.849C74.6313 254.811 74.9624 254.772 75.3908 254.733C75.8193 254.695 76.2186 254.83 76.5886 255.139C76.9587 255.448 77.1437 255.932 77.1437 256.589V284.422C77.1437 285.349 76.7347 285.949 75.9167 286.219C75.683 286.297 75.3714 286.335 74.9818 286.335C74.5923 286.335 74.2028 286.181 73.8133 285.871C73.4237 285.562 73.229 285.079 73.229 284.422V256.589ZM99.8708 286.335C98.9749 286.335 98.3517 285.949 98.0011 285.175C97.8842 284.944 97.8258 284.692 97.8258 284.422V256.589C97.8258 255.7 98.2348 255.12 99.0528 254.849C99.2865 254.811 99.5981 254.772 99.9877 254.733C100.377 254.695 100.767 254.83 101.156 255.139C101.546 255.448 101.741 255.932 101.741 256.589V283.088H116.231C116.815 283.088 117.234 283.252 117.487 283.581C117.74 283.909 117.867 284.277 117.867 284.683C117.867 285.089 117.73 285.465 117.458 285.813C117.185 286.161 116.776 286.335 116.231 286.335H99.8708ZM133.057 272.941C133.875 272.941 134.693 272.96 135.511 272.999V271.143C135.511 268.128 133.816 266.62 130.427 266.62C128.908 266.62 127.798 266.756 127.097 267.026C125.85 267.49 124.955 267.886 124.409 268.215C123.864 268.543 123.435 268.708 123.124 268.708C122.812 268.708 122.52 268.592 122.247 268.36C121.975 268.128 121.838 267.819 121.838 267.432C121.838 267.123 122.014 266.814 122.364 266.504C124.195 264.765 126.902 263.895 130.486 263.895C134.615 263.895 137.264 265.267 138.432 268.012C138.822 268.978 139.016 270.099 139.016 271.375L138.9 284.77C138.9 285.272 138.724 285.659 138.374 285.929C138.023 286.2 137.634 286.335 137.205 286.335C136.777 286.335 136.387 286.219 136.037 285.987C135.686 285.755 135.511 285.369 135.511 284.828V282.74C134.576 284.75 132.901 286.007 130.486 286.509C129.746 286.702 128.908 286.799 127.973 286.799C127.039 286.799 126.113 286.664 125.198 286.393C124.283 286.123 123.474 285.697 122.773 285.118C121.332 283.919 120.611 282.296 120.611 280.247C120.611 275.376 124.76 272.941 133.057 272.941ZM135.511 275.55C134.887 275.627 134.167 275.666 133.349 275.666C132.531 275.666 131.693 275.676 130.836 275.695C129.979 275.714 129.161 275.811 128.382 275.985C127.603 276.159 126.902 276.42 126.279 276.768C124.955 277.463 124.253 278.604 124.176 280.189C124.176 281.426 124.682 282.392 125.695 283.088C126.474 283.707 127.584 284.035 129.025 284.074C130.778 284.074 132.297 283.513 133.583 282.392C134.751 281.31 135.394 279.686 135.511 277.521V275.55ZM164.665 284.712C164.665 285.253 164.461 285.659 164.052 285.929C163.643 286.2 163.292 286.335 163 286.335C162.708 286.335 162.445 286.306 162.211 286.248C161.978 286.19 161.783 286.065 161.627 285.871C161.238 285.601 161.043 285.214 161.043 284.712V282.682C160.108 284.731 158.394 286.007 155.901 286.509C155.122 286.702 154.285 286.799 153.389 286.799C152.493 286.799 151.558 286.644 150.584 286.335C149.61 286.026 148.773 285.523 148.072 284.828C146.514 283.359 145.734 281.155 145.734 278.217V266.04C145.734 265.499 145.91 265.074 146.26 264.765C146.611 264.455 147.02 264.301 147.487 264.301C147.955 264.301 148.364 264.455 148.714 264.765C149.065 265.074 149.24 265.499 149.24 266.04V278.507C149.24 280.595 149.669 282.044 150.526 282.856C151.383 283.668 152.668 284.074 154.382 284.074C157.264 284.074 159.251 282.914 160.342 280.595C160.77 279.783 161.004 278.855 161.043 277.811V266.04C161.043 265.499 161.238 265.074 161.627 264.765C162.017 264.455 162.445 264.301 162.912 264.301C163.38 264.301 163.789 264.455 164.139 264.765C164.49 265.074 164.665 265.499 164.665 266.04V284.712ZM171.501 265.982C171.501 265.48 171.696 265.074 172.086 264.765C172.475 264.455 172.865 264.301 173.254 264.301C174.072 264.301 174.598 264.61 174.832 265.229C175.066 265.847 175.124 266.775 175.007 268.012C175.475 266.852 176.487 265.847 178.045 264.997C179.409 264.262 180.762 263.895 182.106 263.895C183.45 263.895 184.589 264.059 185.524 264.388C186.459 264.716 187.316 265.229 188.095 265.924C189.653 267.393 190.432 269.558 190.432 272.419V284.712C190.432 285.253 190.228 285.659 189.819 285.929C189.41 286.2 188.991 286.335 188.563 286.335C188.095 286.335 187.686 286.19 187.336 285.9C186.985 285.61 186.81 285.214 186.81 284.712V272.187C186.81 270.37 186.303 268.978 185.291 268.012C184.356 267.084 183.187 266.62 181.785 266.62C179.915 266.62 178.318 267.161 176.994 268.244C175.669 269.404 175.007 271.182 175.007 273.578V284.712C175.007 285.253 174.812 285.659 174.423 285.929C174.033 286.2 173.605 286.335 173.137 286.335C172.67 286.335 172.281 286.19 171.969 285.9C171.657 285.61 171.501 285.214 171.501 284.712V265.982ZM195.749 275.318C195.749 272.109 196.665 269.442 198.495 267.316C200.482 265.035 203.072 263.895 206.266 263.895C208.993 263.895 211.077 264.455 212.518 265.577C212.947 265.886 213.161 266.253 213.161 266.678C213.161 267.103 213.044 267.442 212.81 267.693C212.577 267.944 212.304 268.07 211.992 268.07C211.681 268.07 211.447 268.012 211.291 267.896C209.811 267.045 208.253 266.64 206.617 266.678C204.475 266.678 202.8 267.471 201.592 269.056C200.229 270.679 199.547 272.767 199.547 275.318C199.547 277.676 200.034 279.667 201.008 281.29C202.176 283.146 204.046 284.074 206.617 284.074C208.019 284.074 209.733 283.591 211.759 282.624C212.304 282.315 212.772 282.392 213.161 282.856C213.395 283.088 213.512 283.407 213.512 283.813C213.512 284.219 213.258 284.625 212.752 285.031C212.246 285.436 211.642 285.755 210.941 285.987C209.227 286.567 207.571 286.847 205.974 286.828C204.377 286.809 202.936 286.509 201.651 285.929C200.365 285.349 199.294 284.499 198.437 283.378C196.645 281.252 195.749 278.565 195.749 275.318ZM234.196 272.071C234.196 270.293 233.689 268.901 232.676 267.896C231.781 267.045 230.739 266.62 229.551 266.62C228.362 266.62 227.359 266.756 226.541 267.026C225.723 267.297 225.003 267.741 224.38 268.36C223.055 269.597 222.393 271.356 222.393 273.636V284.712C222.393 285.253 222.198 285.659 221.809 285.929C221.419 286.2 220.991 286.335 220.523 286.335C220.056 286.335 219.666 286.19 219.355 285.9C219.043 285.61 218.887 285.214 218.887 284.712V256.415C218.887 255.874 219.082 255.468 219.472 255.197C219.861 254.927 220.251 254.791 220.64 254.791C221.108 254.791 221.517 254.917 221.867 255.168C222.218 255.419 222.393 255.835 222.393 256.415V268.07C222.938 266.717 223.951 265.673 225.431 264.939C226.795 264.243 228.148 263.895 229.492 263.895C230.836 263.895 231.975 264.059 232.91 264.388C233.845 264.716 234.702 265.19 235.481 265.808C237.039 267.277 237.818 269.442 237.818 272.303V284.712C237.818 285.253 237.614 285.659 237.205 285.929C236.796 286.2 236.377 286.335 235.948 286.335C235.481 286.335 235.072 286.19 234.721 285.9C234.371 285.61 234.196 285.214 234.196 284.712V272.071ZM264.403 274.68C264.403 275.492 263.936 275.937 263.001 276.014H246.991C247.147 279.957 248.705 282.508 251.666 283.668C252.484 283.938 253.419 284.074 254.47 284.074C256.652 284.074 258.872 283.281 261.131 281.696C261.832 281.31 262.417 281.348 262.884 281.812C263.118 282.044 263.196 282.276 263.118 282.508C263.118 283.049 262.981 283.436 262.709 283.668C260.566 285.794 257.742 286.838 254.237 286.799C251.042 286.799 248.472 285.775 246.524 283.726C244.343 281.6 243.252 278.797 243.252 275.318C243.252 272.109 244.148 269.462 245.94 267.374C247.809 265.055 250.458 263.895 253.886 263.895C257.314 263.895 259.924 264.919 261.715 266.968C263.429 268.824 264.325 271.394 264.403 274.68ZM260.956 273.636C260.839 271.549 260.157 269.829 258.911 268.476C257.742 267.239 256.067 266.62 253.886 266.62C252.016 266.62 250.419 267.316 249.095 268.708C247.887 270.099 247.225 271.742 247.108 273.636H260.956ZM273.403 268.012C274.338 265.267 276.383 263.895 279.538 263.895C280.122 263.895 280.56 264.059 280.852 264.388C281.144 264.716 281.291 265.064 281.291 265.432C281.291 265.799 281.144 266.147 280.852 266.475C280.56 266.804 280.025 266.968 279.246 266.968C278.466 266.968 277.687 267.123 276.908 267.432C276.129 267.741 275.487 268.186 274.98 268.766C273.929 270.041 273.403 271.723 273.403 273.81V284.712C273.403 285.253 273.208 285.659 272.818 285.929C272.429 286.2 272.078 286.335 271.767 286.335C271.455 286.335 271.202 286.306 271.007 286.248C270.812 286.19 270.618 286.065 270.423 285.871C270.072 285.639 269.897 285.253 269.897 284.712V266.04C269.897 265.538 270.072 265.122 270.423 264.794C270.773 264.465 271.212 264.301 271.737 264.301C272.263 264.301 272.672 264.465 272.964 264.794C273.257 265.122 273.403 265.538 273.403 266.04V268.012Z" fill="url(#paint1_linear_0_1)"/>
<defs>
<linearGradient id="paint0_linear_0_1" x1="29.1533" y1="0.709229" x2="273.274" y2="219.733" gradientUnits="userSpaceOnUse">
<stop stop-color="#3361E1"/>
<stop offset="1"/>
</linearGradient>
<linearGradient id="paint1_linear_0_1" x1="0.777344" y1="254.675" x2="8.05296" y2="318.149" gradientUnits="userSpaceOnUse">
<stop stop-color="#3361E1"/>
<stop offset="1"/>
</linearGradient>
</defs>
</svg>
