<svg width="1184" height="1184" viewBox="0 0 1184 1184" fill="none" xmlns="http://www.w3.org/2000/svg">
<path d="M1183.99 591.986C1183.99 892.68 959.827 1141 669.493 1178.96C644.133 1182.27 618.253 1183.99 591.987 1183.99C265.04 1183.99 0 918.946 0 591.986C0 265.04 265.04 -0.000320054 591.987 -0.000320054C874.48 -0.000320054 1110.75 197.84 1169.79 462.533C1179.08 504.2 1183.99 547.52 1183.99 591.986Z" fill="#3F5EB4"/>
<path d="M775.093 196.92L1169.79 462.533C1179.08 504.2 1183.99 547.52 1183.99 591.987C1183.99 892.68 959.827 1141 669.493 1178.96C494.093 1061.8 331.707 951.293 314.92 933.027L383.667 877.933C595.293 708.36 735.093 465.133 775.093 196.92Z" fill="#375AB1"/>
<path d="M869.067 918.787V933.027C793.467 994.521 697.04 1031.37 591.987 1031.37C486.947 1031.37 390.52 994.521 314.92 933.027V918.787C314.92 810.761 402.493 723.201 510.507 723.201L526.8 670.454C482.027 648.174 450.213 603.654 445.787 551.427C445.307 544.427 439.613 539.227 432.92 537.414C411.893 532.027 396.413 512.961 396.413 490.161C396.413 474.614 403.613 460.814 414.853 451.854C406.053 423.441 396.413 381.707 396.413 335.307C396.413 312.827 414.667 294.561 437.16 294.561C437.16 294.561 446.333 196.721 575.693 213.081C708.587 229.894 775.093 196.921 775.093 196.921C775.093 196.921 803.88 224.774 803.88 278.267C803.88 299.787 797.92 319.894 787.6 337.041C787.573 337.001 787.573 336.974 787.573 336.934L787.547 337.134C787.573 337.094 787.573 337.067 787.6 337.041C792.973 386.334 783.613 429.161 774.547 456.867C782.653 465.601 787.573 477.281 787.573 490.161C787.573 512.961 772.093 532.027 751.067 537.414C744.4 539.227 738.68 544.427 738.187 551.427C733.773 603.641 701.973 648.147 657.2 670.441L673.493 723.201C781.507 723.201 869.067 810.761 869.067 918.787Z" fill="white"/>
</svg>
