<svg width="905" height="982" viewBox="0 0 905 982" fill="none" xmlns="http://www.w3.org/2000/svg">
<g clip-path="url(#clip0_2_2)">
<rect width="1795" height="982" transform="translate(-890)" fill="white"/>
<rect x="184" y="981.563" width="1142.61" height="662.507" transform="rotate(-82.028 184 981.563)" fill="#5566FF"/>
<rect x="1242.75" y="124.733" width="1142.61" height="662.507" rx="70" transform="rotate(120.148 1242.75 124.733)" fill="#402FA1"/>
<rect x="342" y="487.077" width="804.346" height="504.84" rx="70" transform="rotate(-29.4998 342 487.077)" fill="#3C44B2"/>
<rect x="92" y="904.469" width="804.346" height="504.84" rx="70" transform="rotate(-40.5082 92 904.469)" fill="#5599FF"/>
<rect x="773.215" y="-150.149" width="704.513" height="328.587" rx="70" transform="rotate(149.067 773.215 -150.149)" fill="#3B47B0"/>
<rect x="410" y="981.669" width="804.346" height="504.84" rx="70" transform="rotate(-57.2739 410 981.669)" fill="#5191F2"/>
<rect x="768.549" y="-196.61" width="700.831" height="422.505" rx="70" transform="rotate(13.6279 768.549 -196.61)" fill="#5F6FFF"/>
</g>
<defs>
<clipPath id="clip0_2_2">
<rect width="1795" height="982" fill="white" transform="translate(-890)"/>
</clipPath>
</defs>
</svg>
